<?xml version="1.0" encoding="UTF-8"?>
<svg id="Calque_1" data-name="Calque 1" xmlns="http://www.w3.org/2000/svg" viewBox="0 0 256.91 305.62">
  <defs>
    <style>
      .cls-1 {
        fill: #070808;
      }

      .cls-2 {
        fill: #1b9dd9;
      }

      .cls-3 {
        fill: #fcbd1b;
      }
    </style>
  </defs>
  <polygon class="cls-2" points="124.67 77.85 26.75 143.44 26.75 103.18 125.16 40.2 124.67 77.85"/>
  <polygon class="cls-1" points="56.09 139.45 56.08 139.46 56.08 139.45 56.09 139.45"/>
  <polygon class="cls-2" points="124.87 272.06 124.87 287.8 11.6 222.5 11.6 92.52 125.16 19.92 125.21 33.91 22.5 101.3 22.5 147.52 38.01 157.71 22.5 167 22.5 212.01 124.87 272.06"/>
  <polygon class="cls-2" points="124.87 84.04 62.69 125.07 77.79 134.45 125.16 106.18 124.87 84.04"/>
  <polygon class="cls-2" points="124.76 272.06 124.76 287.8 239.77 222.5 239.77 92.52 125.16 19.9 125.16 33.94 228.77 101.3 228.77 148.54 212.61 157.42 228.77 167 228.77 212.01 124.76 272.06"/>
  <polygon class="cls-2" points="124.96 227.8 188.87 189.49 172.42 178.46 124.96 205.4 124.96 227.8"/>
  <polyline class="cls-2" points="26.85 169.82 125.27 112.3 125.16 147.62 26.85 205.35"/>
  <polygon class="cls-2" points="124.97 234.08 224.81 170.98 223.78 209.21 124.87 267.63 124.97 234.08"/>
  <polyline class="cls-2" points="223.78 145.44 124.87 199.42 124.98 166.01 223.78 111.46"/>
  <g>
    <polygon class="cls-3" points="124.96 227.8 59.21 192.42 79.91 179.83 124.96 205.4 124.96 227.8"/>
    <polygon class="cls-3" points="124.87 84.04 191.08 123.33 174.33 132.53 125.16 106.18 124.87 84.04"/>
    <polyline class="cls-3" points="54.96 124.54 73.54 137.18 43.04 154.54 26.75 143.44"/>
    <polygon class="cls-3" points="125.16 112.3 168.82 135.56 135 153.83 125.16 147.62 125.16 112.3"/>
    <polygon class="cls-3" points="125.16 40.2 223.78 105.36 196.79 120.19 124.67 77.85 125.16 40.2"/>
    <polyline class="cls-3" points="196.9 188.62 176.07 176.24 207.4 159.56 224.81 170.98"/>
    <polygon class="cls-3" points="124.98 199.42 84.81 176.99 114.8 160.14 125.14 166.01 124.98 199.42"/>
    <polygon class="cls-3" points="124.87 267.63 28.33 210.62 54.81 195.21 124.97 234.08 124.87 267.63"/>
    <path class="cls-3" d="M113.27,14.11L12.97,77.75c-3.29,2.08-7.71,1.21-9.87-1.96h0c-2.17-3.17-1.26-7.42,2.02-9.51L105.41,2.65c3.29-2.08,7.71-1.21,9.87,1.96h0c2.17,3.17,1.26,7.42-2.02,9.51h0Z"/>
    <path class="cls-3" d="M251.55,243.91l-102.95,59.23c-3.37,1.94-7.75.87-9.78-2.38h0c-2.03-3.26-.94-7.47,2.43-9.41l102.95-59.23c3.37-1.94,7.75-.87,9.78,2.38h0c2.03,3.26.94,7.47-2.43,9.41h0Z"/>
  </g>
  <polygon class="cls-1" points="25.58 143.22 25.56 143.23 25.56 143.22 25.58 143.22"/>
</svg>