<?xml version="1.0" encoding="UTF-8"?>
<svg id="Calque_1" data-name="Calque 1" xmlns="http://www.w3.org/2000/svg" viewBox="0 0 864.21 322.2">
  <defs>
    <style>
      .cls-1 {
        fill: #070808;
      }

      .cls-2 {
        fill: #1b9dd9;
      }

      .cls-3 {
        fill: #009fe3;
      }

      .cls-4 {
        fill: #fcbd14;
      }

      .cls-5 {
        fill: #fcbd1b;
      }
    </style>
  </defs>
  <g>
    <path class="cls-4" d="M350.96,196.16l2.09,8.04c.46,1.76.88,3.4,1.18,5.03h.1c.36-1.6.88-3.3,1.41-5l2.58-8.07h2.42l2.45,7.91c.59,1.9,1.05,3.56,1.41,5.16h.1c.26-1.6.69-3.27,1.21-5.13l2.25-7.94h2.84l-5.1,15.82h-2.62l-2.42-7.55c-.56-1.76-1.01-3.33-1.41-5.2h-.07c-.39,1.9-.88,3.53-1.44,5.23l-2.55,7.52h-2.61l-4.77-15.82h2.94Z"/>
    <path class="cls-4" d="M375.15,204.59c.07,3.89,2.55,5.49,5.43,5.49,2.06,0,3.3-.36,4.38-.82l.49,2.06c-1.01.46-2.75.98-5.26.98-4.87,0-7.78-3.2-7.78-7.97s2.81-8.53,7.42-8.53c5.16,0,6.54,4.54,6.54,7.45,0,.59-.07,1.05-.1,1.34h-11.11ZM383.59,202.53c.03-1.83-.75-4.67-3.99-4.67-2.91,0-4.18,2.68-4.41,4.67h8.4Z"/>
    <path class="cls-4" d="M389.93,201.09c0-1.86-.03-3.46-.13-4.94h2.52l.1,3.1h.13c.72-2.12,2.45-3.46,4.38-3.46.33,0,.56.03.82.1v2.71c-.29-.07-.59-.1-.98-.1-2.03,0-3.46,1.54-3.86,3.69-.07.39-.13.85-.13,1.34v8.43h-2.84v-10.88Z"/>
    <path class="cls-4" d="M401.89,204.59c.07,3.89,2.55,5.49,5.43,5.49,2.06,0,3.3-.36,4.38-.82l.49,2.06c-1.01.46-2.75.98-5.26.98-4.87,0-7.78-3.2-7.78-7.97s2.81-8.53,7.42-8.53c5.17,0,6.54,4.54,6.54,7.45,0,.59-.07,1.05-.1,1.34h-11.11ZM410.33,202.53c.03-1.83-.75-4.67-3.99-4.67-2.91,0-4.18,2.68-4.41,4.67h8.4Z"/>
    <path class="cls-4" d="M434.88,211.39c-.75.39-2.42.92-4.54.92-4.77,0-7.88-3.24-7.88-8.07s3.33-8.4,8.5-8.4c1.7,0,3.2.42,3.99.82l-.65,2.22c-.69-.39-1.76-.75-3.33-.75-3.63,0-5.59,2.68-5.59,5.98,0,3.66,2.35,5.92,5.49,5.92,1.63,0,2.71-.42,3.53-.78l.49,2.16Z"/>
    <path class="cls-4" d="M447,211.98l-.23-1.99h-.1c-.88,1.24-2.58,2.35-4.84,2.35-3.2,0-4.84-2.25-4.84-4.54,0-3.82,3.4-5.92,9.51-5.88v-.33c0-1.31-.36-3.66-3.59-3.66-1.47,0-3.01.46-4.12,1.18l-.65-1.9c1.31-.85,3.2-1.4,5.2-1.4,4.84,0,6.01,3.3,6.01,6.47v5.92c0,1.37.07,2.71.26,3.79h-2.62ZM446.58,203.91c-3.14-.07-6.7.49-6.7,3.56,0,1.86,1.24,2.75,2.71,2.75,2.06,0,3.37-1.31,3.82-2.65.1-.29.16-.62.16-.92v-2.75Z"/>
    <path class="cls-4" d="M454,201.09c0-1.86-.03-3.46-.13-4.94h2.52l.1,3.1h.13c.72-2.12,2.45-3.46,4.38-3.46.33,0,.56.03.82.1v2.71c-.29-.07-.59-.1-.98-.1-2.03,0-3.46,1.54-3.86,3.69-.07.39-.13.85-.13,1.34v8.43h-2.84v-10.88Z"/>
    <path class="cls-4" d="M478.02,188.77v19.12c0,1.41.03,3.01.13,4.08h-2.58l-.13-2.75h-.07c-.88,1.76-2.81,3.1-5.39,3.1-3.82,0-6.77-3.23-6.77-8.04-.03-5.26,3.24-8.5,7.09-8.5,2.42,0,4.05,1.14,4.77,2.42h.07v-9.45h2.88ZM475.15,202.6c0-.36-.03-.85-.13-1.21-.42-1.83-1.99-3.33-4.15-3.33-2.97,0-4.74,2.61-4.74,6.11,0,3.2,1.57,5.85,4.67,5.85,1.93,0,3.69-1.27,4.22-3.43.1-.39.13-.78.13-1.24v-2.75Z"/>
    <path class="cls-4" d="M491.56,211.98l-.23-1.99h-.1c-.88,1.24-2.58,2.35-4.84,2.35-3.2,0-4.84-2.25-4.84-4.54,0-3.82,3.4-5.92,9.51-5.88v-.33c0-1.31-.36-3.66-3.6-3.66-1.47,0-3.01.46-4.12,1.18l-.65-1.9c1.31-.85,3.2-1.4,5.2-1.4,4.84,0,6.01,3.3,6.01,6.47v5.92c0,1.37.07,2.71.26,3.79h-2.61ZM491.13,203.91c-3.14-.07-6.7.49-6.7,3.56,0,1.86,1.24,2.75,2.71,2.75,2.06,0,3.37-1.31,3.82-2.65.1-.29.16-.62.16-.92v-2.75Z"/>
    <path class="cls-4" d="M498.55,200.44c0-1.63-.03-2.97-.13-4.28h2.55l.16,2.61h.06c.79-1.5,2.62-2.97,5.23-2.97,2.19,0,5.59,1.31,5.59,6.73v9.45h-2.88v-9.12c0-2.55-.95-4.67-3.66-4.67-1.9,0-3.37,1.34-3.86,2.94-.13.36-.2.85-.2,1.34v9.51h-2.88v-11.54Z"/>
    <path class="cls-4" d="M531.01,203.94c0,5.85-4.05,8.4-7.88,8.4-4.28,0-7.58-3.14-7.58-8.14,0-5.29,3.46-8.4,7.84-8.4s7.62,3.3,7.62,8.14ZM518.46,204.1c0,3.46,1.99,6.08,4.8,6.08s4.8-2.58,4.8-6.14c0-2.68-1.34-6.08-4.74-6.08s-4.87,3.14-4.87,6.14Z"/>
    <path class="cls-4" d="M541.18,209.04c.85.56,2.35,1.14,3.79,1.14,2.09,0,3.07-1.05,3.07-2.35,0-1.37-.82-2.12-2.94-2.91-2.84-1.01-4.18-2.58-4.18-4.48,0-2.55,2.06-4.64,5.46-4.64,1.6,0,3.01.46,3.89.98l-.72,2.09c-.62-.39-1.77-.92-3.24-.92-1.7,0-2.65.98-2.65,2.16,0,1.31.95,1.89,3.01,2.68,2.75,1.05,4.15,2.42,4.15,4.77,0,2.78-2.16,4.74-5.92,4.74-1.73,0-3.33-.42-4.45-1.08l.72-2.19Z"/>
    <path class="cls-4" d="M557.98,191.62v4.54h4.12v2.19h-4.12v8.53c0,1.96.56,3.07,2.16,3.07.75,0,1.31-.1,1.67-.2l.13,2.16c-.56.23-1.44.39-2.55.39-1.34,0-2.42-.42-3.1-1.21-.82-.85-1.11-2.25-1.11-4.12v-8.63h-2.45v-2.19h2.45v-3.79l2.81-.75Z"/>
    <path class="cls-4" d="M579.46,203.94c0,5.85-4.05,8.4-7.88,8.4-4.28,0-7.58-3.14-7.58-8.14,0-5.29,3.46-8.4,7.84-8.4s7.62,3.3,7.62,8.14ZM566.91,204.1c0,3.46,1.99,6.08,4.8,6.08s4.8-2.58,4.8-6.14c0-2.68-1.34-6.08-4.74-6.08s-4.87,3.14-4.87,6.14Z"/>
    <path class="cls-4" d="M583.09,201.09c0-1.86-.03-3.46-.13-4.94h2.52l.1,3.1h.13c.72-2.12,2.45-3.46,4.38-3.46.33,0,.55.03.82.1v2.71c-.29-.07-.59-.1-.98-.1-2.03,0-3.46,1.54-3.86,3.69-.07.39-.13.85-.13,1.34v8.43h-2.84v-10.88Z"/>
    <path class="cls-4" d="M597.11,191.71c.03.98-.69,1.76-1.83,1.76-1.01,0-1.73-.78-1.73-1.76s.75-1.8,1.8-1.8,1.76.78,1.76,1.8ZM593.91,211.98v-15.82h2.88v15.82h-2.88Z"/>
    <path class="cls-4" d="M603.16,204.59c.07,3.89,2.55,5.49,5.43,5.49,2.06,0,3.3-.36,4.38-.82l.49,2.06c-1.01.46-2.75.98-5.26.98-4.87,0-7.78-3.2-7.78-7.97s2.81-8.53,7.42-8.53c5.16,0,6.54,4.54,6.54,7.45,0,.59-.07,1.05-.1,1.34h-11.11ZM611.59,202.53c.03-1.83-.75-4.67-3.99-4.67-2.91,0-4.18,2.68-4.41,4.67h8.4Z"/>
    <path class="cls-4" d="M617.54,209.04c.85.56,2.35,1.14,3.79,1.14,2.09,0,3.07-1.05,3.07-2.35,0-1.37-.82-2.12-2.94-2.91-2.84-1.01-4.18-2.58-4.18-4.48,0-2.55,2.06-4.64,5.46-4.64,1.6,0,3.01.46,3.89.98l-.72,2.09c-.62-.39-1.77-.92-3.24-.92-1.7,0-2.65.98-2.65,2.16,0,1.31.95,1.89,3.01,2.68,2.75,1.05,4.15,2.42,4.15,4.77,0,2.78-2.16,4.74-5.92,4.74-1.73,0-3.33-.42-4.45-1.08l.72-2.19Z"/>
    <path class="cls-4" d="M353.28,230.84v4.54h4.12v2.19h-4.12v8.53c0,1.96.56,3.07,2.16,3.07.75,0,1.31-.1,1.67-.2l.13,2.16c-.56.23-1.44.39-2.55.39-1.34,0-2.42-.42-3.11-1.21-.82-.85-1.11-2.26-1.11-4.12v-8.63h-2.45v-2.19h2.45v-3.79l2.81-.75Z"/>
    <path class="cls-4" d="M369.4,251.21l-.23-1.99h-.1c-.88,1.24-2.58,2.35-4.84,2.35-3.2,0-4.84-2.26-4.84-4.54,0-3.82,3.4-5.92,9.51-5.88v-.33c0-1.31-.36-3.66-3.59-3.66-1.47,0-3.01.46-4.12,1.18l-.65-1.9c1.31-.85,3.2-1.41,5.2-1.41,4.84,0,6.01,3.3,6.01,6.47v5.92c0,1.37.07,2.71.26,3.79h-2.62ZM368.97,243.13c-3.14-.06-6.7.49-6.7,3.56,0,1.86,1.24,2.75,2.71,2.75,2.06,0,3.37-1.31,3.82-2.65.1-.29.16-.62.16-.92v-2.75Z"/>
    <path class="cls-4" d="M379.24,242.64h.07c.39-.55.95-1.24,1.41-1.8l4.64-5.46h3.46l-6.11,6.5,6.96,9.32h-3.5l-5.46-7.58-1.47,1.63v5.95h-2.84v-23.21h2.84v14.64Z"/>
    <path class="cls-4" d="M393.33,243.82c.07,3.89,2.55,5.49,5.43,5.49,2.06,0,3.3-.36,4.38-.82l.49,2.06c-1.01.46-2.75.98-5.26.98-4.87,0-7.78-3.2-7.78-7.97s2.81-8.53,7.42-8.53c5.16,0,6.54,4.54,6.54,7.45,0,.59-.07,1.04-.1,1.34h-11.11ZM401.76,241.76c.03-1.83-.75-4.67-3.99-4.67-2.91,0-4.18,2.68-4.41,4.67h8.4Z"/>
    <path class="cls-4" d="M414.64,248.26c.85.55,2.35,1.14,3.79,1.14,2.09,0,3.07-1.04,3.07-2.35,0-1.37-.82-2.12-2.94-2.91-2.84-1.01-4.18-2.58-4.18-4.48,0-2.55,2.06-4.64,5.46-4.64,1.6,0,3.01.46,3.89.98l-.72,2.09c-.62-.39-1.76-.91-3.24-.91-1.7,0-2.65.98-2.65,2.16,0,1.31.95,1.9,3.01,2.68,2.75,1.05,4.15,2.42,4.15,4.77,0,2.78-2.16,4.74-5.92,4.74-1.73,0-3.33-.42-4.44-1.08l.72-2.19Z"/>
    <path class="cls-4" d="M427.98,228h2.88v9.87h.07c.46-.82,1.18-1.54,2.06-2.03.85-.49,1.86-.82,2.94-.82,2.12,0,5.52,1.31,5.52,6.77v9.41h-2.88v-9.09c0-2.55-.95-4.71-3.66-4.71-1.86,0-3.33,1.31-3.86,2.88-.16.39-.2.82-.2,1.37v9.54h-2.88v-23.21Z"/>
    <path class="cls-4" d="M454.88,251.21l-.23-1.99h-.1c-.88,1.24-2.58,2.35-4.84,2.35-3.2,0-4.84-2.26-4.84-4.54,0-3.82,3.4-5.92,9.51-5.88v-.33c0-1.31-.36-3.66-3.6-3.66-1.47,0-3.01.46-4.12,1.18l-.65-1.9c1.31-.85,3.2-1.41,5.2-1.41,4.84,0,6.01,3.3,6.01,6.47v5.92c0,1.37.07,2.71.26,3.79h-2.61ZM454.46,243.13c-3.14-.06-6.7.49-6.7,3.56,0,1.86,1.24,2.75,2.71,2.75,2.06,0,3.37-1.31,3.82-2.65.1-.29.16-.62.16-.92v-2.75Z"/>
    <path class="cls-4" d="M461.88,240.55c0-2.03-.06-3.66-.13-5.16h2.58l.13,2.71h.06c1.18-1.93,3.04-3.07,5.62-3.07,3.82,0,6.7,3.24,6.7,8.04,0,5.69-3.46,8.5-7.19,8.5-2.09,0-3.92-.92-4.87-2.48h-.07v8.6h-2.84v-17.13ZM464.72,244.77c0,.43.07.82.13,1.18.52,1.99,2.25,3.37,4.31,3.37,3.04,0,4.8-2.48,4.8-6.11,0-3.17-1.67-5.88-4.71-5.88-1.96,0-3.79,1.4-4.35,3.56-.1.36-.2.78-.2,1.18v2.71Z"/>
    <path class="cls-4" d="M482.08,243.82c.07,3.89,2.55,5.49,5.43,5.49,2.06,0,3.3-.36,4.38-.82l.49,2.06c-1.01.46-2.75.98-5.26.98-4.87,0-7.78-3.2-7.78-7.97s2.81-8.53,7.42-8.53c5.17,0,6.54,4.54,6.54,7.45,0,.59-.07,1.04-.1,1.34h-11.11ZM490.51,241.76c.03-1.83-.75-4.67-3.99-4.67-2.91,0-4.18,2.68-4.41,4.67h8.4Z"/>
  </g>
  <rect class="cls-3" x="293.26" y="15.97" width="2.82" height="267.36"/>
  <g>
    <path class="cls-3" d="M352.06,150.84v-54.72h41.63v9.56h-33.55v35.6h33.61v9.56h-41.7ZM366.11,127.06v-8.05h25.85v8.05h-25.85Z"/>
    <path class="cls-3" d="M401.2,150.84v-54.72h8.15v54.72h-8.15Z"/>
    <path class="cls-3" d="M439.18,150.84c-13.02,0-22.64-12.04-22.64-27.93s9.62-26.8,22.64-26.8h25.27v9.56h-25.27c-8.34,0-14.5,7.3-14.5,17.69s6.09,17.92,14.5,17.92h19.95v-14.23h-21.04v-8.05h29.25v31.84h-28.16Z"/>
    <path class="cls-3" d="M474.85,151.07v-54.95h8.15v54.95h-8.15ZM512.38,151.07v-23.79h-23.48v-8.51h23.48v-22.66h8.15v54.95h-8.15Z"/>
    <path class="cls-3" d="M543.56,150.84v-45.16h-17.71v-9.56h43.56v9.56h-17.71v45.16h-8.15Z"/>
    <path class="cls-3" d="M593.6,150.84v-54.72h34.13c9.11,0,15.14,4.82,15.14,14.15,0,6.92-3.02,10.39-6.48,11.67,4.23,1.58,7.31,5.95,7.31,12.35,0,10.01-5.9,16.56-15.01,16.56h-35.09ZM607.65,127.06v-8.05h20.14c4.62,0,6.8-1.88,6.8-6.62,0-5.8-3.91-6.7-9.94-6.7h-22.9v35.68h23.61c5.84,0,10.07-1.88,10.07-7.23,0-4.52-2.5-7.08-7.06-7.08h-20.72Z"/>
    <path class="cls-3" d="M650.82,150.84v-54.72h8.15v45.16h31.37v9.56h-39.52Z"/>
    <path class="cls-3" d="M717.48,150.84c-13.02,0-22.64-12.04-22.64-27.93s9.62-26.8,22.64-26.8h11.35c13.47,0,22.84,10.92,22.84,26.8s-9.56,27.93-22.84,27.93h-11.35ZM728.83,141.28c8.6,0,14.69-7.6,14.69-17.92s-6.09-17.69-14.69-17.69h-11.35c-8.34,0-14.5,7.3-14.5,17.69s6.09,17.92,14.5,17.92h11.35Z"/>
    <path class="cls-3" d="M779.58,150.84c-13.02,0-22.64-12.04-22.64-27.93s9.62-26.8,22.64-26.8h25.27v9.56h-25.27c-8.34,0-14.5,7.3-14.5,17.69s6.09,17.92,14.5,17.92h25.27v9.56h-25.27Z"/>
    <path class="cls-3" d="M811.46,150.84v-54.72h8.15v54.72h-8.15ZM849.89,150.84l-26.11-24.09c-1.41-1.28-1.67-2.48-1.67-3.99,0-1.66.39-2.86,2.05-4.37l24.7-22.28h12.51l-30.53,26.72,31.5,28h-12.44Z"/>
  </g>
  <rect class="cls-4" x="710.08" y="111.77" width="28.03" height="23.99" rx="11.99" ry="11.99"/>
  <g>
    <polygon class="cls-2" points="130.18 90.38 32.26 155.97 32.26 115.71 130.67 52.73 130.18 90.38"/>
    <polygon class="cls-1" points="61.6 151.98 61.59 151.99 61.59 151.98 61.6 151.98"/>
    <polygon class="cls-2" points="130.38 284.6 130.38 300.33 17.11 235.03 17.11 105.05 130.68 32.45 130.72 46.44 28.01 113.83 28.01 160.05 43.52 170.24 28.01 179.53 28.01 224.54 130.38 284.6"/>
    <polygon class="cls-2" points="130.38 96.57 68.2 137.6 83.3 146.98 130.67 118.71 130.38 96.57"/>
    <polygon class="cls-2" points="130.27 284.6 130.27 300.33 245.28 235.03 245.28 105.05 130.68 32.43 130.67 46.47 234.28 113.83 234.28 161.07 218.12 169.95 234.28 179.53 234.28 224.54 130.27 284.6"/>
    <polygon class="cls-2" points="130.48 240.33 194.39 202.03 177.94 191 130.48 217.93 130.48 240.33"/>
    <polyline class="cls-2" points="32.36 182.35 130.78 124.83 130.67 160.15 32.36 217.88"/>
    <polygon class="cls-2" points="130.49 246.61 230.33 183.51 229.29 221.74 130.38 280.16 130.49 246.61"/>
    <polyline class="cls-2" points="229.29 157.97 130.38 211.95 130.49 178.54 229.29 123.99"/>
    <g>
      <polygon class="cls-5" points="130.48 240.33 64.73 204.95 85.43 192.36 130.48 217.93 130.48 240.33"/>
      <polygon class="cls-5" points="130.38 96.57 196.59 135.86 179.84 145.06 130.67 118.71 130.38 96.57"/>
      <polyline class="cls-5" points="60.48 137.07 79.05 149.71 48.55 167.07 32.26 155.97"/>
      <polygon class="cls-5" points="130.67 124.83 174.33 148.09 140.51 166.36 130.67 160.15 130.67 124.83"/>
      <polygon class="cls-5" points="130.67 52.73 229.29 117.89 202.3 132.72 130.18 90.38 130.67 52.73"/>
      <polyline class="cls-5" points="202.42 201.15 181.59 188.77 212.91 172.1 230.33 183.51"/>
      <polygon class="cls-5" points="130.49 211.95 90.32 189.52 120.31 172.67 130.65 178.54 130.49 211.95"/>
      <polygon class="cls-5" points="130.38 280.16 33.84 223.15 60.33 207.74 130.49 246.61 130.38 280.16"/>
      <path class="cls-5" d="M118.78,26.64L18.48,90.28c-3.29,2.08-7.71,1.21-9.87-1.96h0c-2.17-3.17-1.26-7.42,2.02-9.51L110.92,15.18c3.29-2.08,7.71-1.21,9.87,1.96h0c2.17,3.17,1.26,7.42-2.02,9.51h0Z"/>
      <path class="cls-5" d="M257.06,256.44l-102.95,59.23c-3.37,1.94-7.75.87-9.78-2.38h0c-2.03-3.26-.94-7.47,2.43-9.41l102.95-59.23c3.37-1.94,7.75-.87,9.78,2.38h0c2.03,3.26.94,7.47-2.43,9.41h0Z"/>
    </g>
    <polygon class="cls-1" points="31.09 155.75 31.07 155.76 31.07 155.75 31.09 155.75"/>
  </g>
</svg>