<?xml version="1.0" encoding="UTF-8"?>
<svg id="Calque_1" data-name="Calque 1" xmlns="http://www.w3.org/2000/svg" viewBox="0 0 864.59 315">
  <defs>
    <style>
      .cls-1 {
        fill: #070808;
      }

      .cls-2 {
        fill: #1b9dd9;
      }

      .cls-3 {
        fill: #009fe3;
      }

      .cls-4 {
        fill: #fcbd14;
      }

      .cls-5 {
        fill: #fcbd1b;
      }
    </style>
  </defs>
  <rect class="cls-3" x="291.57" y="9.27" width="2.82" height="267.36"/>
  <g>
    <path class="cls-3" d="M350.37,144.14v-54.72h41.63v9.56h-33.55v35.6h33.61v9.56h-41.7ZM364.42,120.36v-8.05h25.85v8.05h-25.85Z"/>
    <path class="cls-3" d="M399.51,144.14v-54.72h8.15v54.72h-8.15Z"/>
    <path class="cls-3" d="M437.49,144.14c-13.02,0-22.64-12.04-22.64-27.93s9.62-26.8,22.64-26.8h25.27v9.56h-25.27c-8.34,0-14.5,7.3-14.5,17.69s6.09,17.91,14.5,17.91h19.95v-14.23h-21.04v-8.05h29.25v31.84h-28.16Z"/>
    <path class="cls-3" d="M473.16,144.37v-54.95h8.15v54.95h-8.15ZM510.68,144.37v-23.79h-23.48v-8.51h23.48v-22.66h8.15v54.95h-8.15Z"/>
    <path class="cls-3" d="M541.86,144.14v-45.16h-17.71v-9.56h43.56v9.56h-17.71v45.16h-8.15Z"/>
    <path class="cls-3" d="M591.9,144.14v-54.72h34.13c9.11,0,15.14,4.82,15.14,14.15,0,6.92-3.02,10.39-6.48,11.67,4.23,1.58,7.31,5.95,7.31,12.34,0,10.01-5.9,16.56-15.01,16.56h-35.09ZM605.95,120.36v-8.05h20.14c4.62,0,6.8-1.88,6.8-6.62,0-5.8-3.91-6.7-9.94-6.7h-22.9v35.68h23.61c5.84,0,10.07-1.88,10.07-7.23,0-4.52-2.5-7.08-7.06-7.08h-20.72Z"/>
    <path class="cls-3" d="M649.13,144.14v-54.72h8.15v45.16h31.37v9.56h-39.52Z"/>
    <path class="cls-3" d="M715.78,144.14c-13.02,0-22.64-12.04-22.64-27.93s9.62-26.8,22.64-26.8h11.35c13.47,0,22.84,10.92,22.84,26.8s-9.56,27.93-22.84,27.93h-11.35ZM727.13,134.58c8.6,0,14.69-7.6,14.69-17.91s-6.09-17.69-14.69-17.69h-11.35c-8.34,0-14.5,7.3-14.5,17.69s6.09,17.91,14.5,17.91h11.35Z"/>
    <path class="cls-3" d="M777.88,144.14c-13.02,0-22.64-12.04-22.64-27.93s9.62-26.8,22.64-26.8h25.27v9.56h-25.27c-8.34,0-14.5,7.3-14.5,17.69s6.09,17.91,14.5,17.91h25.27v9.56h-25.27Z"/>
    <path class="cls-3" d="M809.77,144.14v-54.72h8.15v54.72h-8.15ZM848.19,144.14l-26.11-24.09c-1.41-1.28-1.67-2.48-1.67-3.99,0-1.66.39-2.86,2.05-4.37l24.7-22.28h12.51l-30.53,26.72,31.5,28h-12.44Z"/>
  </g>
  <rect class="cls-4" x="708.38" y="105.07" width="28.03" height="23.99" rx="11.99" ry="11.99"/>
  <g>
    <polygon class="cls-2" points="129 84.69 31.08 150.28 31.08 110.02 129.49 47.04 129 84.69"/>
    <polygon class="cls-1" points="60.42 146.29 60.41 146.3 60.41 146.29 60.42 146.29"/>
    <polygon class="cls-2" points="129.2 278.9 129.2 294.64 15.93 229.34 15.93 99.36 129.5 26.76 129.54 40.74 26.83 108.14 26.83 154.36 42.34 164.55 26.83 173.84 26.83 218.85 129.2 278.9"/>
    <polygon class="cls-2" points="129.2 90.88 67.02 131.91 82.12 141.29 129.49 113.02 129.2 90.88"/>
    <polygon class="cls-2" points="129.09 278.9 129.09 294.64 244.1 229.34 244.1 99.36 129.5 26.74 129.49 40.78 233.1 108.14 233.1 155.38 216.94 164.26 233.1 173.84 233.1 218.85 129.09 278.9"/>
    <polygon class="cls-2" points="129.3 234.64 193.2 196.33 176.76 185.3 129.3 212.24 129.3 234.64"/>
    <polyline class="cls-2" points="31.18 176.66 129.6 119.14 129.49 154.46 31.18 212.19"/>
    <polygon class="cls-2" points="129.3 240.92 229.15 177.82 228.11 216.05 129.2 274.47 129.3 240.92"/>
    <polyline class="cls-2" points="228.11 152.28 129.2 206.26 129.31 172.85 228.11 118.3"/>
    <g>
      <polygon class="cls-5" points="129.3 234.64 63.55 199.26 84.25 186.67 129.3 212.24 129.3 234.64"/>
      <polygon class="cls-5" points="129.2 90.88 195.41 130.17 178.66 139.37 129.49 113.02 129.2 90.88"/>
      <polyline class="cls-5" points="59.3 131.37 77.87 144.02 47.37 161.38 31.08 150.28"/>
      <polygon class="cls-5" points="129.49 119.14 173.15 142.4 139.33 160.67 129.49 154.46 129.49 119.14"/>
      <polygon class="cls-5" points="129.49 47.04 228.11 112.2 201.12 127.03 129 84.69 129.49 47.04"/>
      <polyline class="cls-5" points="201.23 195.46 180.41 183.08 211.73 166.4 229.15 177.82"/>
      <polygon class="cls-5" points="129.31 206.26 89.14 183.83 119.13 166.98 129.47 172.85 129.31 206.26"/>
      <polygon class="cls-5" points="129.2 274.47 32.66 217.46 59.15 202.05 129.3 240.92 129.2 274.47"/>
      <path class="cls-5" d="M117.6,20.95L17.3,84.59c-3.29,2.08-7.71,1.21-9.87-1.96h0c-2.17-3.17-1.26-7.42,2.02-9.51L109.74,9.49c3.29-2.08,7.71-1.21,9.87,1.96h0c2.17,3.17,1.26,7.42-2.02,9.51h0Z"/>
      <path class="cls-5" d="M255.88,250.75l-102.95,59.23c-3.37,1.94-7.75.87-9.78-2.38h0c-2.03-3.26-.94-7.47,2.43-9.41l102.95-59.23c3.37-1.94,7.75-.87,9.78,2.38h0c2.03,3.26.94,7.47-2.43,9.41h0Z"/>
    </g>
    <polygon class="cls-1" points="29.91 150.06 29.89 150.07 29.89 150.06 29.91 150.06"/>
  </g>
</svg>